<svg width="21" height="20" viewBox="0 0 21 20" fill="none" xmlns="http://www.w3.org/2000/svg">
<path d="M3.625 4.71167C3.625 3.8425 4.3425 3.125 5.21167 3.125H15.7883C16.6575 3.125 17.375 3.8425 17.375 4.71167V9.52C17.3724 9.93992 17.2043 10.3419 16.9073 10.6387C16.6103 10.9356 16.2083 11.1034 15.7883 11.1058H5.21167C4.7916 11.1034 4.38942 10.9355 4.09238 10.6385C3.79534 10.3414 3.62741 9.93923 3.625 9.51917V4.71167ZM13.7208 9.85583V8.5575C13.7183 8.46901 13.682 8.38483 13.6194 8.32223C13.5568 8.25963 13.4727 8.22335 13.3842 8.22083H7.61583C7.52749 8.22356 7.44352 8.25993 7.38109 8.32251C7.31867 8.38509 7.28251 8.46915 7.28 8.5575V9.85583H13.7208ZM7.615 12.2583C7.78076 12.2583 7.93973 12.3242 8.05694 12.4414C8.17415 12.5586 8.24 12.7176 8.24 12.8833C8.24 13.4042 8.22833 14.125 7.98583 14.7208C7.85594 15.0606 7.63084 15.3557 7.3375 15.5708C7.01417 15.8017 6.62083 15.9125 6.17333 15.9125C6.00757 15.9125 5.8486 15.8467 5.73139 15.7294C5.61418 15.6122 5.54833 15.4533 5.54833 15.2875C5.54833 15.1217 5.61418 14.9628 5.73139 14.8456C5.8486 14.7283 6.00757 14.6625 6.17333 14.6625C6.40917 14.6625 6.5375 14.6067 6.6125 14.5533C6.69083 14.4975 6.765 14.4058 6.8275 14.2508C6.965 13.9125 6.99 13.4308 6.99 12.8842C6.99 12.7184 7.05585 12.5594 7.17306 12.4422C7.29027 12.325 7.44924 12.2592 7.615 12.2592M10.5 12.2592C10.6658 12.2592 10.8247 12.325 10.9419 12.4422C11.0592 12.5594 11.125 12.7184 11.125 12.8842V16.25C11.125 16.4158 11.0592 16.5747 10.9419 16.6919C10.8247 16.8092 10.6658 16.875 10.5 16.875C10.3342 16.875 10.1753 16.8092 10.0581 16.6919C9.94085 16.5747 9.875 16.4158 9.875 16.25V12.8842C9.875 12.7184 9.94085 12.5594 10.0581 12.4422C10.1753 12.325 10.3342 12.2592 10.5 12.2592ZM13.3842 12.2592C13.5499 12.2592 13.7089 12.325 13.8261 12.4422C13.9433 12.5594 14.0092 12.7184 14.0092 12.8842C14.0092 13.4317 14.0342 13.9133 14.1725 14.2517C14.235 14.4067 14.3092 14.4983 14.3875 14.5542C14.4625 14.6075 14.5908 14.6633 14.8267 14.6633C14.9924 14.6633 15.1514 14.7292 15.2686 14.8464C15.3858 14.9636 15.4517 15.1226 15.4517 15.2883C15.4517 15.4541 15.3858 15.6131 15.2686 15.7303C15.1514 15.8475 14.9924 15.9133 14.8267 15.9133C14.3792 15.9133 13.985 15.8025 13.6625 15.5717C13.3692 15.3566 13.1441 15.0614 13.0142 14.7217C12.7725 14.1258 12.7592 13.405 12.7592 12.8842C12.7592 12.7184 12.825 12.5594 12.9422 12.4422C13.0594 12.325 13.2184 12.2592 13.3842 12.2592Z" fill="white"/>
</svg>
